<svg width="830" height="416" viewBox="0 0 830 416" fill="none" xmlns="http://www.w3.org/2000/svg">
<path d="M632.317 378.6H635.989C636.885 378.6 637.681 378.776 638.377 379.128C639.073 379.472 639.613 379.964 639.997 380.604C640.381 381.236 640.573 381.968 640.573 382.8C640.573 383.632 640.381 384.368 639.997 385.008C639.613 385.64 639.073 386.132 638.377 386.484C637.681 386.828 636.885 387 635.989 387H632.317V378.6ZM635.917 385.68C636.533 385.68 637.073 385.564 637.537 385.332C638.009 385.092 638.369 384.756 638.617 384.324C638.873 383.884 639.001 383.376 639.001 382.8C639.001 382.224 638.873 381.72 638.617 381.288C638.369 380.848 638.009 380.512 637.537 380.28C637.073 380.04 636.533 379.92 635.917 379.92H633.877V385.68H635.917ZM647.562 385.056H643.362L642.534 387H640.926L644.706 378.6H646.242L650.034 387H648.402L647.562 385.056ZM647.046 383.832L645.462 380.16L643.89 383.832H647.046ZM652.385 379.92H649.601V378.6H656.729V379.92H653.945V387H652.385V379.92ZM664.199 385.692V387H657.899V378.6H664.031V379.908H659.459V382.092H663.515V383.376H659.459V385.692H664.199Z" fill="#2B426A"/>
<path d="M455.4 143.973C455.4 144.701 455.28 145.333 455.04 145.869C454.8 146.413 454.456 146.829 454.008 147.117C453.56 147.405 453.028 147.549 452.412 147.549C451.804 147.549 451.272 147.405 450.816 147.117C450.368 146.829 450.024 146.413 449.784 145.869C449.544 145.333 449.424 144.701 449.424 143.973L449.424 142.077L447 142.077L447 140.517L455.4 140.517L455.4 143.973ZM450.744 143.901C450.744 144.581 450.888 145.097 451.176 145.449C451.464 145.801 451.876 145.977 452.412 145.977C452.948 145.977 453.36 145.801 453.648 145.449C453.936 145.097 454.08 144.581 454.08 143.901L454.08 142.077L450.744 142.077L450.744 143.901ZM448.944 154.133L448.944 149.933L447 149.105L447 147.497L455.4 151.277L455.4 152.813L447 156.605L447 154.973L448.944 154.133ZM450.168 153.617L453.84 152.033L450.168 150.461L450.168 153.617ZM454.08 158.955L454.08 156.171L455.4 156.171L455.4 163.299L454.08 163.299L454.08 160.515L447 160.515L447 158.955L454.08 158.955ZM455.4 164.47L455.4 166.03L447 166.03L447 164.47L455.4 164.47ZM448.308 174.602L447 174.602L447 168.302L455.4 168.302L455.4 174.434L454.092 174.434L454.092 169.862L451.908 169.862L451.908 173.918L450.624 173.918L450.624 169.862L448.308 169.862L448.308 174.602ZM455.4 183.805L447 183.805L447 182.521L452.688 177.889L447 177.889L447 176.341L455.4 176.341L455.4 177.625L449.712 182.257L455.4 182.257L455.4 183.805ZM454.08 187.76L454.08 184.976L455.4 184.976L455.4 192.104L454.08 192.104L454.08 189.32L447 189.32L447 187.76L454.08 187.76ZM446.88 195.796C446.88 195.148 446.972 194.52 447.156 193.912C447.34 193.312 447.584 192.836 447.888 192.484L449.1 193.024C448.828 193.368 448.604 193.788 448.428 194.284C448.26 194.788 448.176 195.292 448.176 195.796C448.176 196.42 448.276 196.884 448.476 197.188C448.676 197.5 448.94 197.656 449.268 197.656C449.508 197.656 449.704 197.568 449.856 197.392C450.016 197.224 450.14 197.008 450.228 196.744C450.316 196.48 450.416 196.12 450.528 195.664C450.68 195.024 450.832 194.504 450.984 194.104C451.136 193.712 451.372 193.372 451.692 193.084C452.02 192.804 452.46 192.664 453.012 192.664C453.476 192.664 453.896 192.788 454.272 193.036C454.656 193.292 454.96 193.672 455.184 194.176C455.408 194.688 455.52 195.312 455.52 196.048C455.52 196.56 455.456 197.064 455.328 197.56C455.2 198.056 455.016 198.484 454.776 198.844L453.564 198.352C453.78 197.984 453.944 197.6 454.056 197.2C454.168 196.8 454.224 196.412 454.224 196.036C454.224 195.42 454.12 194.96 453.912 194.656C453.704 194.36 453.428 194.212 453.084 194.212C452.844 194.212 452.648 194.296 452.496 194.464C452.344 194.64 452.224 194.86 452.136 195.124C452.048 195.388 451.948 195.748 451.836 196.204C451.692 196.828 451.54 197.34 451.38 197.74C451.228 198.14 450.992 198.48 450.672 198.76C450.352 199.048 449.92 199.192 449.376 199.192C448.912 199.192 448.492 199.064 448.116 198.808C447.74 198.56 447.44 198.18 447.216 197.668C446.992 197.156 446.88 196.532 446.88 195.796Z" fill="#2B426A"/>
<path d="M214.317 378.6H217.989C218.885 378.6 219.681 378.776 220.377 379.128C221.073 379.472 221.613 379.964 221.997 380.604C222.381 381.236 222.573 381.968 222.573 382.8C222.573 383.632 222.381 384.368 221.997 385.008C221.613 385.64 221.073 386.132 220.377 386.484C219.681 386.828 218.885 387 217.989 387H214.317V378.6ZM217.917 385.68C218.533 385.68 219.073 385.564 219.537 385.332C220.009 385.092 220.369 384.756 220.617 384.324C220.873 383.884 221.001 383.376 221.001 382.8C221.001 382.224 220.873 381.72 220.617 381.288C220.369 380.848 220.009 380.512 219.537 380.28C219.073 380.04 218.533 379.92 217.917 379.92H215.877V385.68H217.917ZM229.562 385.056H225.362L224.534 387H222.926L226.706 378.6H228.242L232.034 387H230.402L229.562 385.056ZM229.046 383.832L227.462 380.16L225.89 383.832H229.046ZM234.385 379.92H231.601V378.6H238.729V379.92H235.945V387H234.385V379.92ZM246.199 385.692V387H239.899V378.6H246.031V379.908H241.459V382.092H245.515V383.376H241.459V385.692H246.199Z" fill="#2B426A"/>
<path d="M37.4 143.973C37.4 144.701 37.28 145.333 37.04 145.869C36.8 146.413 36.456 146.829 36.008 147.117C35.56 147.405 35.028 147.549 34.412 147.549C33.804 147.549 33.272 147.405 32.816 147.117C32.368 146.829 32.024 146.413 31.784 145.869C31.544 145.333 31.424 144.701 31.424 143.973L31.424 142.077L29 142.077L29 140.517L37.4 140.517L37.4 143.973ZM32.744 143.901C32.744 144.581 32.888 145.097 33.176 145.449C33.464 145.801 33.876 145.977 34.412 145.977C34.948 145.977 35.36 145.801 35.648 145.449C35.936 145.097 36.08 144.581 36.08 143.901L36.08 142.077L32.744 142.077L32.744 143.901ZM30.944 154.133L30.944 149.933L29 149.105L29 147.497L37.4 151.277L37.4 152.813L29 156.605L29 154.973L30.944 154.133ZM32.168 153.617L35.84 152.033L32.168 150.461L32.168 153.617ZM36.08 158.955L36.08 156.171L37.4 156.171L37.4 163.299L36.08 163.299L36.08 160.515L29 160.515L29 158.955L36.08 158.955ZM37.4 164.47L37.4 166.03L29 166.03L29 164.47L37.4 164.47ZM30.308 174.602L29 174.602L29 168.302L37.4 168.302L37.4 174.434L36.092 174.434L36.092 169.862L33.908 169.862L33.908 173.918L32.624 173.918L32.624 169.862L30.308 169.862L30.308 174.602ZM37.4 183.805L29 183.805L29 182.521L34.688 177.889L29 177.889L29 176.341L37.4 176.341L37.4 177.625L31.712 182.257L37.4 182.257L37.4 183.805ZM36.08 187.76L36.08 184.976L37.4 184.976L37.4 192.104L36.08 192.104L36.08 189.32L29 189.32L29 187.76L36.08 187.76ZM28.88 195.796C28.88 195.148 28.972 194.52 29.156 193.912C29.34 193.312 29.584 192.836 29.888 192.484L31.1 193.024C30.828 193.368 30.604 193.788 30.428 194.284C30.26 194.788 30.176 195.292 30.176 195.796C30.176 196.42 30.276 196.884 30.476 197.188C30.676 197.5 30.94 197.656 31.268 197.656C31.508 197.656 31.704 197.568 31.856 197.392C32.016 197.224 32.14 197.008 32.228 196.744C32.316 196.48 32.416 196.12 32.528 195.664C32.68 195.024 32.832 194.504 32.984 194.104C33.136 193.712 33.372 193.372 33.692 193.084C34.02 192.804 34.46 192.664 35.012 192.664C35.476 192.664 35.896 192.788 36.272 193.036C36.656 193.292 36.96 193.672 37.184 194.176C37.408 194.688 37.52 195.312 37.52 196.048C37.52 196.56 37.456 197.064 37.328 197.56C37.2 198.056 37.016 198.484 36.776 198.844L35.564 198.352C35.78 197.984 35.944 197.6 36.056 197.2C36.168 196.8 36.224 196.412 36.224 196.036C36.224 195.42 36.12 194.96 35.912 194.656C35.704 194.36 35.428 194.212 35.084 194.212C34.844 194.212 34.648 194.296 34.496 194.464C34.344 194.64 34.224 194.86 34.136 195.124C34.048 195.388 33.948 195.748 33.836 196.204C33.692 196.828 33.54 197.34 33.38 197.74C33.228 198.14 32.992 198.48 32.672 198.76C32.352 199.048 31.92 199.192 31.376 199.192C30.912 199.192 30.492 199.064 30.116 198.808C29.74 198.56 29.44 198.18 29.216 197.668C28.992 197.156 28.88 196.532 28.88 195.796Z" fill="#2B426A"/>
<path fill-rule="evenodd" clip-rule="evenodd" d="M48.6233 0L48.6233 361.974H48.6234L48.6234 363.169L410.597 363.169V358.169L53.6233 358.169L53.6233 0H48.6233Z" fill="#2B426A"/>
<path fill-rule="evenodd" clip-rule="evenodd" d="M467.325 0L467.325 361.974H467.325L467.325 363.169L829.299 363.169V358.169L472.325 358.169L472.325 0H467.325Z" fill="#2B426A"/>
</svg>
